<svg width="100" height="33" viewBox="0 0 100 33" fill="none" xmlns="http://www.w3.org/2000/svg">
<path d="M14.2775 24.4898V7.34692H21.698C23.2327 7.34692 24.5551 7.59999 25.6653 8.10611C26.7755 8.5959 27.6327 9.30611 28.2367 10.2367C28.8408 11.1673 29.1429 12.2775 29.1429 13.5673C29.1429 14.8408 28.8408 15.9428 28.2367 16.8735C27.6327 17.7877 26.7755 18.4898 25.6653 18.9796C24.5551 19.4694 23.2327 19.7143 21.698 19.7143H16.4816L18.2449 17.9755V24.4898H14.2775ZM25.1755 24.4898L20.8898 18.2694H25.1265L29.4612 24.4898H25.1755ZM18.2449 18.4163L16.4816 16.5551H21.4776C22.702 16.5551 23.6163 16.2939 24.2204 15.7714C24.8245 15.2326 25.1265 14.4979 25.1265 13.5673C25.1265 12.6204 24.8245 11.8857 24.2204 11.3633C23.6163 10.8408 22.702 10.5796 21.4776 10.5796H16.4816L18.2449 8.69386V18.4163Z" fill="white"/>
<path d="M37.4082 24.6326C36.1973 24.6326 35.1361 24.3945 34.2245 23.9183C33.3265 23.4286 32.6259 22.7618 32.1224 21.9183C31.6327 21.0749 31.3878 20.1156 31.3878 19.0408C31.3878 17.9524 31.6259 16.9932 32.102 16.1632C32.5918 15.3197 33.2586 14.6598 34.102 14.1837C34.9592 13.7075 35.932 13.4694 37.0204 13.4694C38.0816 13.4694 39.0271 13.7007 39.8571 14.1632C40.6871 14.6258 41.3402 15.2789 41.8163 16.1224C42.2924 16.966 42.5306 17.9592 42.5306 19.102C42.5306 19.2109 42.5239 19.3333 42.5102 19.4694C42.5102 19.6054 42.5035 19.7347 42.4898 19.8571H33.4082V18.1632H41.1429L40.1429 18.6939C40.1565 18.068 40.0271 17.517 39.7551 17.0408C39.4831 16.5646 39.1088 16.1905 38.6327 15.9183C38.17 15.6462 37.6327 15.5102 37.0204 15.5102C36.3945 15.5102 35.8435 15.6462 35.3673 15.9183C34.9047 16.1905 34.5373 16.5714 34.2653 17.0612C34.0067 17.5374 33.8776 18.102 33.8776 18.7551V19.1632C33.8776 19.8163 34.0271 20.3945 34.3265 20.8979C34.6259 21.4014 35.0476 21.7892 35.5918 22.0612C36.1361 22.3332 36.7618 22.4694 37.4694 22.4694C38.0816 22.4694 38.6327 22.3741 39.1225 22.1837C39.6122 21.9932 40.0476 21.6939 40.4286 21.2857L41.7959 22.8571C41.3061 23.4286 40.6871 23.8708 39.9388 24.1837C39.2041 24.483 38.3606 24.6326 37.4082 24.6326ZM51.0218 24.6326C50.1376 24.6326 49.328 24.4286 48.5933 24.0204C47.8722 23.6122 47.2939 23 46.8586 22.1837C46.4367 21.3537 46.2259 20.3061 46.2259 19.0408C46.2259 17.7619 46.43 16.7143 46.8382 15.8979C47.26 15.0816 47.8314 14.4762 48.5525 14.0816C49.2735 13.6735 50.0967 13.4694 51.0218 13.4694C52.0967 13.4694 53.0422 13.7007 53.8586 14.1632C54.6886 14.6258 55.3416 15.2721 55.8178 16.102C56.3076 16.932 56.5524 17.9116 56.5524 19.0408C56.5524 20.17 56.3076 21.1565 55.8178 22C55.3416 22.83 54.6886 23.4761 53.8586 23.9388C53.0422 24.4014 52.0967 24.6326 51.0218 24.6326ZM44.981 28.449V13.5918H47.4096V16.1632L47.328 19.0612L47.532 21.9592V28.449H44.981ZM50.7361 22.449C51.3484 22.449 51.8927 22.3128 52.3688 22.0408C52.8586 21.7688 53.2463 21.3741 53.532 20.8571C53.8178 20.3401 53.9606 19.7347 53.9606 19.0408C53.9606 18.3333 53.8178 17.7279 53.532 17.2245C53.2463 16.7075 52.8586 16.3129 52.3688 16.0408C51.8927 15.7687 51.3484 15.6326 50.7361 15.6326C50.1239 15.6326 49.5729 15.7687 49.0831 16.0408C48.5933 16.3129 48.2055 16.7075 47.9198 17.2245C47.6341 17.7279 47.4912 18.3333 47.4912 19.0408C47.4912 19.7347 47.6341 20.3401 47.9198 20.8571C48.2055 21.3741 48.5933 21.7688 49.0831 22.0408C49.5729 22.3128 50.1239 22.449 50.7361 22.449ZM63.8698 24.6326C62.7541 24.6326 61.7608 24.3945 60.8902 23.9183C60.0194 23.4286 59.3322 22.7618 58.829 21.9183C58.3255 21.0749 58.0739 20.1156 58.0739 19.0408C58.0739 17.9524 58.3255 16.9932 58.829 16.1632C59.3322 15.3197 60.0194 14.6598 60.8902 14.1837C61.7608 13.7075 62.7541 13.4694 63.8698 13.4694C64.999 13.4694 65.999 13.7075 66.8698 14.1837C67.7541 14.6598 68.4412 15.3129 68.931 16.1428C69.4343 16.9728 69.6861 17.9388 69.6861 19.0408C69.6861 20.1156 69.4343 21.0749 68.931 21.9183C68.4412 22.7618 67.7541 23.4286 66.8698 23.9183C65.999 24.3945 64.999 24.6326 63.8698 24.6326ZM63.8698 22.449C64.4955 22.449 65.0535 22.3128 65.5433 22.0408C66.0331 21.7688 66.4139 21.3741 66.6861 20.8571C66.9718 20.3401 67.1147 19.7347 67.1147 19.0408C67.1147 18.3333 66.9718 17.7279 66.6861 17.2245C66.4139 16.7075 66.0331 16.3129 65.5433 16.0408C65.0535 15.7687 64.5024 15.6326 63.8902 15.6326C63.2643 15.6326 62.7065 15.7687 62.2167 16.0408C61.7404 16.3129 61.3596 16.7075 61.0739 17.2245C60.7882 17.7279 60.6453 18.3333 60.6453 19.0408C60.6453 19.7347 60.7882 20.3401 61.0739 20.8571C61.3596 21.3741 61.7404 21.7688 62.2167 22.0408C62.7065 22.3128 63.2576 22.449 63.8698 22.449ZM72.1255 24.4898V13.5918H74.5541V16.5918L74.2684 15.7143C74.5949 14.9796 75.1051 14.4218 75.799 14.0408C76.5065 13.6598 77.3841 13.4694 78.4316 13.4694V15.8979C78.3229 15.8707 78.2208 15.8571 78.1255 15.8571C78.0302 15.8435 77.9351 15.8367 77.8398 15.8367C76.8739 15.8367 76.1051 16.1224 75.5337 16.6939C74.9622 17.2517 74.6765 18.0884 74.6765 19.2041V24.4898H72.1255ZM85.0963 24.6326C83.899 24.6326 82.9739 24.3265 82.3208 23.7143C81.6678 23.0883 81.3412 22.17 81.3412 20.9592V11.1837H83.8922V20.8979C83.8922 21.4149 84.0214 21.8163 84.28 22.102C84.552 22.3877 84.9263 22.5306 85.4024 22.5306C85.9739 22.5306 86.45 22.381 86.831 22.0816L87.5453 23.8979C87.2459 24.1428 86.8786 24.3265 86.4433 24.449C86.008 24.5714 85.559 24.6326 85.0963 24.6326ZM79.5453 15.7143V13.6735H86.8106V15.7143H79.5453ZM93.0112 24.6326C92.0996 24.6326 91.222 24.5169 90.3786 24.2857C89.5486 24.0408 88.8888 23.7483 88.399 23.4081L89.3786 21.4694C89.8684 21.7822 90.4533 22.0408 91.1337 22.2449C91.8139 22.449 92.4941 22.551 93.1745 22.551C93.9771 22.551 94.5553 22.4422 94.9092 22.2245C95.2765 22.0067 95.4602 21.7143 95.4602 21.3469C95.4602 21.0475 95.3378 20.823 95.0929 20.6735C94.848 20.5102 94.5282 20.3877 94.1337 20.3061C93.739 20.2245 93.2969 20.1496 92.8071 20.0816C92.3308 20.0136 91.848 19.9251 91.3582 19.8163C90.8818 19.6939 90.4465 19.5238 90.052 19.3061C89.6573 19.0748 89.3378 18.7687 89.0929 18.3877C88.848 18.0068 88.7255 17.5034 88.7255 16.8775C88.7255 16.1837 88.9226 15.585 89.3173 15.0816C89.7118 14.5646 90.2629 14.17 90.9704 13.8979C91.6914 13.6122 92.5418 13.4694 93.5214 13.4694C94.2561 13.4694 94.9976 13.551 95.7459 13.7143C96.4941 13.8775 97.1133 14.1088 97.6031 14.4081L96.6235 16.3469C96.1063 16.034 95.5827 15.8231 95.052 15.7143C94.5349 15.5918 94.018 15.5306 93.501 15.5306C92.7255 15.5306 92.1471 15.6462 91.7663 15.8775C91.399 16.1088 91.2153 16.4013 91.2153 16.7551C91.2153 17.0816 91.3378 17.3265 91.5827 17.4898C91.8275 17.653 92.1471 17.7823 92.5418 17.8775C92.9363 17.9728 93.3716 18.0544 93.848 18.1224C94.3378 18.1769 94.8206 18.2653 95.2969 18.3877C95.7731 18.5102 96.2084 18.6802 96.6031 18.8979C97.0112 19.102 97.3378 19.3945 97.5826 19.7755C97.8275 20.1564 97.95 20.653 97.95 21.2653C97.95 21.9455 97.7459 22.5373 97.3378 23.0408C96.9431 23.5443 96.3786 23.9388 95.6439 24.2245C94.9092 24.4965 94.0316 24.6326 93.0112 24.6326Z" fill="#50B848"/>
<path d="M18.3755 24.4898V7.34692H10C7.8449 7.34692 6.22857 7.75509 5.15102 8.57141C4.05714 9.38774 3.5102 10.4653 3.5102 11.8041C3.5102 12.702 3.73061 13.4857 4.17143 14.1551C4.61224 14.8081 5.21633 15.3143 5.98367 15.6735C6.75102 16.0326 7.63265 16.2122 8.62857 16.2122L8.16327 15.2081C7.08571 15.2081 6.13061 15.3877 5.29796 15.7469C4.46531 16.0898 3.82041 16.6041 3.36327 17.2898C2.8898 17.9755 2.65306 18.8163 2.65306 19.8122C2.65306 21.2816 3.23265 22.4326 4.39184 23.2653C5.55102 24.0816 7.25714 24.4898 9.5102 24.4898H18.3755ZM14.4327 21.502H9.80408C8.77551 21.502 8 21.3388 7.47755 21.0122C6.93878 20.6694 6.66939 20.1306 6.66939 19.3959C6.66939 18.6775 6.93878 18.1469 7.47755 17.8041C8 17.4449 8.77551 17.2653 9.80408 17.2653H14.7265V14.3755H10.4898C9.52653 14.3755 8.79184 14.2122 8.28571 13.8857C7.76326 13.5428 7.50204 13.0286 7.50204 12.3428C7.50204 11.6735 7.76326 11.1755 8.28571 10.849C8.79184 10.5061 9.52653 10.3347 10.4898 10.3347H14.4327V21.502Z" fill="white"/>
</svg>
