<svg width="500" height="164" viewBox="0 0 500 164" fill="none" xmlns="http://www.w3.org/2000/svg">
<path d="M71.3878 122.449V36.7347H108.49C116.163 36.7347 122.776 38 128.327 40.5306C133.878 42.9796 138.163 46.5306 141.184 51.1837C144.204 55.8367 145.714 61.3877 145.714 67.8367C145.714 74.2041 144.204 79.7143 141.184 84.3673C138.163 88.9388 133.878 92.449 128.327 94.8979C122.776 97.3469 116.163 98.5714 108.49 98.5714H82.4082L91.2245 89.8775V122.449H71.3878ZM125.878 122.449L104.449 91.3469H125.633L147.306 122.449H125.878ZM91.2245 92.0816L82.4082 82.7755H107.388C113.51 82.7755 118.082 81.4694 121.102 78.8571C124.122 76.1633 125.633 72.4898 125.633 67.8367C125.633 63.102 124.122 59.4286 121.102 56.8163C118.082 54.2041 113.51 52.8979 107.388 52.8979H82.4082L91.2245 43.4694V92.0816Z" fill="#006C3F"/>
<path d="M187.041 123.163C180.987 123.163 175.681 121.972 171.122 119.592C166.633 117.143 163.13 113.809 160.612 109.592C158.163 105.374 156.939 100.578 156.939 95.2041C156.939 89.7619 158.13 84.966 160.51 80.8163C162.959 76.5987 166.293 73.2993 170.51 70.9184C174.796 68.5374 179.66 67.3469 185.102 67.3469C190.408 67.3469 195.136 68.5034 199.286 70.8163C203.436 73.1293 206.701 76.3946 209.082 80.6122C211.462 84.8299 212.653 89.7959 212.653 95.5102C212.653 96.0544 212.619 96.6666 212.551 97.3469C212.551 98.0272 212.517 98.6735 212.449 99.2857H167.041V90.8163H205.714L200.714 93.4694C200.783 90.3401 200.136 87.585 198.775 85.2041C197.415 82.8232 195.544 80.9523 193.163 79.5918C190.85 78.2313 188.163 77.551 185.102 77.551C181.972 77.551 179.217 78.2313 176.837 79.5918C174.523 80.9523 172.687 82.8571 171.327 85.3061C170.034 87.687 169.388 90.5102 169.388 93.7755V95.8163C169.388 99.0816 170.136 101.973 171.633 104.49C173.13 107.007 175.238 108.946 177.959 110.306C180.681 111.666 183.809 112.347 187.347 112.347C190.408 112.347 193.163 111.87 195.612 110.918C198.061 109.966 200.238 108.469 202.143 106.429L208.98 114.286C206.531 117.143 203.436 119.354 199.694 120.918C196.02 122.415 191.803 123.163 187.041 123.163ZM255.109 123.163C250.688 123.163 246.64 122.143 242.966 120.102C239.361 118.061 236.469 115 234.293 110.918C232.184 106.768 231.13 101.531 231.13 95.2041C231.13 88.8095 232.15 83.5714 234.191 79.4898C236.3 75.4082 239.157 72.3809 242.762 70.4082C246.367 68.3673 250.484 67.3469 255.109 67.3469C260.484 67.3469 265.211 68.5034 269.293 70.8163C273.443 73.1293 276.708 76.3605 279.089 80.5102C281.538 84.6599 282.762 89.5579 282.762 95.2041C282.762 100.85 281.538 105.783 279.089 110C276.708 114.15 273.443 117.381 269.293 119.694C265.211 122.007 260.484 123.163 255.109 123.163ZM224.905 142.245V67.9592H237.048V80.8163L236.64 95.3061L237.66 109.796V142.245H224.905ZM253.681 112.245C256.742 112.245 259.463 111.564 261.844 110.204C264.293 108.844 266.232 106.87 267.66 104.286C269.089 101.701 269.803 98.6735 269.803 95.2041C269.803 91.6666 269.089 88.6395 267.66 86.1224C266.232 83.5374 264.293 81.5646 261.844 80.2041C259.463 78.8436 256.742 78.1633 253.681 78.1633C250.619 78.1633 247.864 78.8436 245.415 80.2041C242.966 81.5646 241.028 83.5374 239.599 86.1224C238.17 88.6395 237.456 91.6666 237.456 95.2041C237.456 98.6735 238.17 101.701 239.599 104.286C241.028 106.87 242.966 108.844 245.415 110.204C247.864 111.564 250.619 112.245 253.681 112.245ZM319.349 123.163C313.77 123.163 308.804 121.972 304.451 119.592C300.097 117.143 296.661 113.809 294.145 109.592C291.628 105.374 290.369 100.578 290.369 95.2041C290.369 89.7619 291.628 84.966 294.145 80.8163C296.661 76.5987 300.097 73.2993 304.451 70.9184C308.804 68.5374 313.77 67.3469 319.349 67.3469C324.995 67.3469 329.995 68.5374 334.349 70.9184C338.77 73.2993 342.206 76.5646 344.655 80.7143C347.171 84.864 348.431 89.6939 348.431 95.2041C348.431 100.578 347.171 105.374 344.655 109.592C342.206 113.809 338.77 117.143 334.349 119.592C329.995 121.972 324.995 123.163 319.349 123.163ZM319.349 112.245C322.478 112.245 325.267 111.564 327.716 110.204C330.165 108.844 332.069 106.87 333.431 104.286C334.859 101.701 335.573 98.6735 335.573 95.2041C335.573 91.6666 334.859 88.6395 333.431 86.1224C332.069 83.5374 330.165 81.5646 327.716 80.2041C325.267 78.8436 322.512 78.1633 319.451 78.1633C316.321 78.1633 313.533 78.8436 311.084 80.2041C308.702 81.5646 306.798 83.5374 305.369 86.1224C303.941 88.6395 303.227 91.6666 303.227 95.2041C303.227 98.6735 303.941 101.701 305.369 104.286C306.798 106.87 308.702 108.844 311.084 110.204C313.533 111.564 316.288 112.245 319.349 112.245ZM360.628 122.449V67.9592H372.77V82.9592L371.342 78.5714C372.974 74.898 375.525 72.1089 378.995 70.2041C382.533 68.2993 386.92 67.3469 392.158 67.3469V79.4898C391.614 79.3538 391.104 79.2857 390.628 79.2857C390.151 79.2177 389.675 79.1837 389.199 79.1837C384.369 79.1837 380.526 80.6122 377.668 83.4694C374.811 86.2585 373.383 90.4421 373.383 96.0204V122.449H360.628ZM425.482 123.163C419.495 123.163 414.869 121.633 411.604 118.571C408.339 115.442 406.706 110.85 406.706 104.796V55.9184H419.461V104.49C419.461 107.074 420.107 109.082 421.4 110.51C422.76 111.939 424.632 112.653 427.012 112.653C429.869 112.653 432.25 111.905 434.155 110.408L437.727 119.49C436.23 120.714 434.393 121.633 432.216 122.245C430.04 122.857 427.795 123.163 425.482 123.163ZM397.727 78.5714V68.3673H434.053V78.5714H397.727ZM465.056 123.163C460.498 123.163 456.11 122.585 451.893 121.429C447.743 120.204 444.444 118.742 441.995 117.041L446.893 107.347C449.342 108.911 452.266 110.204 455.668 111.224C459.069 112.245 462.47 112.755 465.872 112.755C469.886 112.755 472.777 112.211 474.546 111.122C476.383 110.034 477.301 108.571 477.301 106.735C477.301 105.238 476.689 104.115 475.464 103.367C474.24 102.551 472.641 101.939 470.668 101.531C468.695 101.122 466.485 100.748 464.036 100.408C461.654 100.068 459.24 99.6258 456.791 99.0816C454.409 98.4694 452.233 97.6191 450.26 96.5306C448.287 95.3742 446.689 93.8436 445.464 91.9388C444.24 90.034 443.628 87.517 443.628 84.3878C443.628 80.9184 444.613 77.9252 446.587 75.4082C448.559 72.8232 451.314 70.8503 454.852 69.4898C458.457 68.0612 462.709 67.3469 467.607 67.3469C471.281 67.3469 474.988 67.7551 478.73 68.5714C482.47 69.3878 485.566 70.5442 488.015 72.0408L483.117 81.7347C480.532 80.1701 477.913 79.1156 475.26 78.5714C472.675 77.9592 470.09 77.6531 467.505 77.6531C463.628 77.6531 460.736 78.2313 458.832 79.3878C456.995 80.5442 456.077 82.0068 456.077 83.7755C456.077 85.4082 456.689 86.6326 457.913 87.449C459.138 88.2653 460.736 88.9115 462.709 89.3878C464.682 89.864 466.858 90.2721 469.24 90.6122C471.689 90.8844 474.103 91.3265 476.485 91.9388C478.865 92.551 481.042 93.4013 483.015 94.4898C485.056 95.5102 486.689 96.9727 487.913 98.8775C489.138 100.782 489.75 103.265 489.75 106.327C489.75 109.728 488.73 112.687 486.689 115.204C484.715 117.721 481.893 119.694 478.219 121.122C474.546 122.483 470.158 123.163 465.056 123.163Z" fill="#50B848"/>
<path d="M91.8776 122.449V36.7347H50C39.2245 36.7347 31.1429 38.7755 25.7551 42.8571C20.2857 46.9388 17.551 52.3265 17.551 59.0204C17.551 63.5102 18.6531 67.4286 20.8571 70.7755C23.0612 74.0408 26.0816 76.5714 29.9184 78.3673C33.7551 80.1633 38.1633 81.0612 43.1429 81.0612L40.8163 76.0408C35.4286 76.0408 30.6531 76.9388 26.4898 78.7347C22.3265 80.449 19.102 83.0204 16.8163 86.449C14.449 89.8775 13.2653 94.0816 13.2653 99.0612C13.2653 106.408 16.1633 112.163 21.9592 116.327C27.7551 120.408 36.2857 122.449 47.551 122.449H91.8776ZM72.1633 107.51H49.0204C43.8776 107.51 40 106.694 37.3878 105.061C34.6939 103.347 33.3469 100.653 33.3469 96.9796C33.3469 93.3877 34.6939 90.7347 37.3878 89.0204C40 87.2245 43.8776 86.3265 49.0204 86.3265H73.6327V71.8775H52.449C47.6327 71.8775 43.9592 71.0612 41.4286 69.4286C38.8163 67.7143 37.5102 65.1428 37.5102 61.7143C37.5102 58.3673 38.8163 55.8775 41.4286 54.2449C43.9592 52.5306 47.6327 51.6735 52.449 51.6735H72.1633V107.51Z" fill="#006C3F"/>
</svg>
